<svg xmlns="http://www.w3.org/2000/svg" id="Layer_1" viewBox="0 0 283.5 124.4">
    <style>
        .s0{stop-color:#44c8f5}
        .s1{stop-color:#6dcff6}
        .s2{stop-color:#0066b3}
        .s3{stop-color:#006fb9}
        .s4{stop-color:#0090d0}
        .s5{stop-color:#2aace3}
        .s6{stop-color:#3fbfef}
        .s7{stop-color:#42c2f1}
        .s8{stop-color:#36b6e9}
        .s9{stop-color:#1fa4de}
        .s10{stop-color:#008dce}
        .s11{stop-color:#0073bb}
        .s12{stop-color:#001a45}
        .s13{stop-color:#7ed3f7}
        .s14{stop-color:#3ec7f4}
        .s15{stop-color:#27c4f4}
        .s16{stop-color:#00c0f3}
        .s17{stop-color:#00bbf2}
        .s18{stop-color:#00b4f1}
        .s19{stop-color:#00aeef}
        .s20{stop-color:#0079c0}
        .s21{stop-color:#0097d5}
        .s22{stop-color:#2eafe5}
        .s23{stop-color:#40c0ef}
        .s24{stop-color:#00a5e5}
        .s25{stop-color:#0072bb}

    </style>
    <style>
        .st0{fill:#fff}
        .st1{fill:url(#SVGID_1_)}
        .st2{fill:url(#SVGID_2_)}
        .st3{fill:url(#SVGID_3_)}
        .st4,.st5{fill-rule:evenodd;clip-rule:evenodd;fill:url(#SVGID_4_)}
        .st5{fill:url(#SVGID_5_)}
        .st6{fill:url(#SVGID_6_)}
        .st7{fill-rule:evenodd;clip-rule:evenodd;fill:url(#SVGID_7_)}
        .st8{fill:url(#SVGID_8_)}
        .st9{fill:url(#SVGID_9_)}
        .st10{fill:url(#SVGID_10_)}
        .st11{fill:url(#SVGID_11_)}
        .st12{fill:url(#SVGID_12_)}
        .st13{fill:url(#SVGID_13_)}
        .st14{fill:url(#SVGID_14_)}
        .st15{fill-rule:evenodd;clip-rule:evenodd;fill:url(#SVGID_15_)}
        .st16{fill:url(#SVGID_16_)}
        .st17{fill:url(#SVGID_17_)}
        .st18{fill:url(#SVGID_18_)}
        .st19{fill:url(#SVGID_19_)}

    </style>
    <path class="st0"
          d="M119.5 107.4H98.3V101h7.1L104 64.5l-16.7 35.9h-3.2L67.4 64.5 66.1 101h7.1v6.4H38.3V101h5.9l-4.8-13.1H17.9L13.1 101h6.1v6.4H0V101h4.4c.9 0 1.7-.8 2-1.6.3-.8 16-42.1 16-42.1h-5.8v-6.4h12.1c4.1 0 5.5 3.7 5.9 4.9 0 0 16.3 43.1 16.5 43.6.4.8 1 1.6 2 1.6h4.7c1 0 1.6-.8 1.6-1.6 0-.7 1.7-37.4 1.9-42.1h-7.4v-6.4h10.8c2.6 0 4.3 1.5 5.8 4.9 1.5 3.4 15.3 33.4 15.3 33.4s13.9-30.3 15.3-33.4c1.5-3.4 2.9-4.9 5.5-4.9h10.9v6.4H110l1.8 42.1c0 .8.8 1.6 1.6 1.6h5.9v6.4zM20.2 81.6H37l-8.4-22.7-8.4 22.7zm124.2 25.8h-21.9V101h5.7c.9 0 1.6-.8 1.6-1.6V57.3h-7.3v-6.4H144c12.4 0 21 7.4 21 18 0 11.1-8.1 18.3-20.7 18.3-2.7 0-5.7-.1-7.6-.1v12.4c0 .8.6 1.6 1.6 1.6h6.1v6.3zm-7.6-26.8c1.9.1 4.8.1 7.8.1 8.3 0 13.5-4.5 13.5-11.8 0-8.1-6.9-11.7-13.7-11.7h-7.6v23.4z"/>
    <linearGradient id="SVGID_1_" gradientUnits="userSpaceOnUse" x1="216.512" y1="93.778" x2="201.997" y2="118.347">
        <stop offset="0" stop-color="#1268B3"/>
        <stop offset=".5" stop-color="#44C8F5"/>
        <stop offset="1" stop-color="#6DCFF6"/>
    </linearGradient>
    <path class="st1"
          d="M219.4 109.5c-1-4.6-1.3-9.6-.1-14.8-1.2-.4-3.6-1.2-3.8-1.3-.2-.1-.6-.2-.6-.2-.5-.2-1.1-.3-1.6-.5-.9-.3-1.7-.5-2.6-.8-9.8 10.6-17.5 13.2-25.2 13.4-1.8 3.9-.8 5.9 4.6 4.8 11.1-2.3 17-8.6 23.9-15.2l.7-.7c-.4 2.5-.6 5.4-.7 8.6-.2 6.5 1.3 15.7 4.2 20.1 1.3 1.9 3.2 2.2 5.8-.6-1.6-3.2-3.5-7.7-4.6-12.8z"/>
    <linearGradient id="SVGID_2_" gradientUnits="userSpaceOnUse" x1="176.488" y1="71.049" x2="217.191" y2="71.049">
        <stop offset="0" stop-color="#0066B3"/>
        <stop offset=".085" stop-color="#006CB7"/>
        <stop offset=".235" stop-color="#007BC2"/>
        <stop offset=".433" stop-color="#0199D6"/>
        <stop offset=".663" stop-color="#44C8F5"/>
        <stop offset="1" stop-color="#44C8F5"/>
    </linearGradient>
    <path class="st2"
          d="M216.2 76c.9-1.5 1.3-3.7.6-6.7-.7 3-6.3 6.4-14.3 5.3-4.5-.4-9.6-2.9-13.6-5.4-4-2.5-6-4.3-6.8-5-3.7-3.1-8.5 1.8-3.6 5.2 5.9 4.5 16.1 8.8 23.6 9.5 4.9.4 10.2-.3 14.1-2.9z"/>
    <linearGradient id="SVGID_3_" gradientUnits="userSpaceOnUse" x1="195.304" y1="38.198" x2="221.637" y2="73.679">
        <stop offset="0" stop-color="#0066B3"/>
        <stop offset=".055" stop-color="#006FB9"/>
        <stop offset=".244" stop-color="#0090D0"/>
        <stop offset=".406" stop-color="#2AACE3"/>
        <stop offset=".532" stop-color="#3FBFEF"/>
        <stop offset=".608" stop-color="#44C8F5"/>
        <stop offset=".661" stop-color="#42C2F1"/>
        <stop offset=".727" stop-color="#36B6E9"/>
        <stop offset=".8" stop-color="#1FA4DE"/>
        <stop offset=".879" stop-color="#008DCE"/>
        <stop offset=".961" stop-color="#0073BB"/>
        <stop offset="1" stop-color="#0066B3"/>
    </linearGradient>
    <path class="st3"
          d="M213.9 53.7c-4.5-6-16.9-21.2-18.1-22.7 0 .1.1.5.2.9.4 1.8 1 5.3 2.6 10.3 3.2 3.9 6.6 8 8.2 9.9 11.3 13.8 11.4 20.4 9.4 23.9 1.7-1.1 3.4-2.8 4.2-4.8 2-4.7-1.8-11.3-6.5-17.5z"/>
    <linearGradient id="SVGID_4_" gradientUnits="userSpaceOnUse" x1="236.327" y1="241.854" x2="244.171" y2="213.592"
                    gradientTransform="matrix(.9644 -.266 .2677 .9348 -57.12 -134.708)">
        <stop offset=".387" stop-color="#0066B3"/>
        <stop offset="1" stop-color="#001A45"/>
    </linearGradient>
    <path class="st4"
          d="M231.7 27.6c-.1-.2-.1-.4-.1-.8v-2.3c.1-1.9.3-4.3.5-7 .4-5.3 1-10.6 1.2-13.1.4-6.3 7.4-5.8 6 .4-.3 1.3-1.5 6.8-2.7 12.1-.6 2.8-1.3 5.6-1.8 7.6-.3 1-.5 1.9-.7 2.5-.1.3-.2.6-.3.8-.4.7-1 .7-1.3.6-.3 0-.7-.2-.8-.8z"/>
    <linearGradient id="SVGID_5_" gradientUnits="userSpaceOnUse" x1="-203.238" y1="-362.539" x2="-172.587" y2="-344.122"
                    gradientTransform="matrix(-.0983 -.9303 -.923 .098 -161.708 -83.413)">
        <stop offset=".387" stop-color="#0066B3"/>
        <stop offset="1" stop-color="#001A45"/>
    </linearGradient>
    <path class="st5"
          d="M197.9 66.3c.9-.8-.7-2.6-1.3-3.4-2.3-3.1-10.7-13.4-22.8-17.5-5-1.6-7.9 3.9-3.5 5.6 2.5 1 7.6 2.7 12.6 5.7 6 3.4 11.1 7.4 13 8.9 1 .9 1.5 1.2 2 .7z"/>
    <linearGradient id="SVGID_6_" gradientUnits="userSpaceOnUse" x1="197.446" y1="51.603" x2="241.336" y2="20.172">
        <stop offset=".006" stop-color="#6DCFF6"/>
        <stop offset=".084" stop-color="#7ED3F7"/>
        <stop offset=".229" stop-color="#44C8F5"/>
        <stop offset=".262" stop-color="#3EC7F4"/>
        <stop offset=".282" stop-color="#27C4F4"/>
        <stop offset=".298" stop-color="#00C0F3"/>
        <stop offset=".313" stop-color="#00BBF2"/>
        <stop offset=".326" stop-color="#00B4F1"/>
        <stop offset=".337" stop-color="#00AEEF"/>
        <stop offset=".346" stop-color="#00B4F1"/>
        <stop offset=".356" stop-color="#00BBF2"/>
        <stop offset=".367" stop-color="#00C0F3"/>
        <stop offset=".38" stop-color="#27C4F4"/>
        <stop offset=".395" stop-color="#3EC7F4"/>
        <stop offset=".42" stop-color="#44C8F5"/>
        <stop offset=".469" stop-color="#36B6E9"/>
        <stop offset=".571" stop-color="#0091D1"/>
        <stop offset=".699" stop-color="#0066B3"/>
        <stop offset="1" stop-color="#0066B3"/>
    </linearGradient>
    <path class="st6"
          d="M219 6.9c0 .2-.4 2-.8 3.2-.5 1.5-.8 3-1.2 4.5 3.3 7.1 5 12.8 5.1 19.7-.1 10.5-4.7 30.7-11.3 30.7-2.5 0-5.9-7-9-14.2-4.1-9.6-5.1-16.3-5.8-18.9-.1-.4-.1-.4-.2-.9 0 0-.1-.2-.2-.3-2-2.3-4.5-.9-4.6 1.4-.1 3.1 3.8 14.8 6.1 20.4 4.9 11.9 9 18 13 17.8 5.3-.3 10.2-7.7 13.3-16.8 2.5-7.6 4.1-14.8 4.1-19.7 0-9.1-3.2-16.6-8.5-26.9z"/>
    <linearGradient id="SVGID_7_" gradientUnits="userSpaceOnUse" x1="229.167" y1="64.517" x2="280.947" y2="74.909">
        <stop offset="0" stop-color="#0066B3"/>
        <stop offset=".305" stop-color="#0066B3"/>
        <stop offset=".383" stop-color="#0079C0"/>
        <stop offset=".502" stop-color="#0097D5"/>
        <stop offset=".608" stop-color="#2EAFE5"/>
        <stop offset=".693" stop-color="#40C0EF"/>
        <stop offset=".747" stop-color="#44C8F5"/>
    </linearGradient>
    <path class="st7"
          d="M280.2 64.7c-4.5-.9-7.6-1.1-16.3-1.1-7.2 0-13.7.8-19 1.7-8.3 1.5-14 3.7-15.1 4.1-.2 1.7-.5 3.5-.7 5.3 4.7-1.6 8.7-3.2 13-4.2 16.5-3.8 31.2-1.5 36.1-.6 6.7 1.1 6.6-4.3 2-5.2z"/>
    <linearGradient id="SVGID_8_" gradientUnits="userSpaceOnUse" x1="219.989" y1="70.054" x2="265.507" y2="3.857">
        <stop offset="0" stop-color="#44C8F5"/>
        <stop offset=".022" stop-color="#47C8F5"/>
        <stop offset=".448" stop-color="#71D0F6"/>
        <stop offset=".699" stop-color="#7ED3F7"/>
        <stop offset=".843" stop-color="#6DCFF6"/>
        <stop offset="1" stop-color="#6DCFF6"/>
    </linearGradient>
    <path class="st8"
          d="M229.2 74.6c-2.1.7-4.9 1-4.7-2 3.8-38.3 17-59.7 37.9-67.2 3-1 5.1 0 5.4 4.2-.4.1-1.1.2-1.6.4-18.9 6.1-33 28.5-37 64.6z"/>
    <linearGradient id="SVGID_9_" gradientUnits="userSpaceOnUse" x1="237.71" y1="43.803" x2="193.386" y2="19.307">
        <stop offset=".012" stop-color="#00A5E5"/>
        <stop offset=".056" stop-color="#00AFE9"/>
        <stop offset=".128" stop-color="#26BFF0"/>
        <stop offset=".166" stop-color="#44C8F5"/>
        <stop offset=".548" stop-color="#7ED3F7"/>
        <stop offset=".693" stop-color="#6DCFF6"/>
        <stop offset="1" stop-color="#6DCFF6"/>
    </linearGradient>
    <path class="st9"
          d="M226.5 58.7c-1.9-2.5-8.3-13-10.2-21-2-8.3-1.3-16.6 1.9-27.6.4-1.2.8-3 .8-3.2-1.4-3-4.5-2.1-5.1.2-4 13.5-4.1 23.9-2.5 30.6 2.6 10.9 11.9 23.7 14.2 26.7.3-1.9.6-3.9.9-5.7z"/>
    <linearGradient id="SVGID_10_" gradientUnits="userSpaceOnUse" x1="229.812" y1="80.679" x2="277.332" y2="80.679">
        <stop offset="0" stop-color="#44C8F5"/>
        <stop offset=".455" stop-color="#69CEF6"/>
        <stop offset=".515" stop-color="#6DCFF6"/>
        <stop offset="1" stop-color="#7ED3F7"/>
    </linearGradient>
    <path class="st10"
          d="M232.4 83c-1 1.4-1.7 3-1 5.2-8.3-16.8 18.2-17.5 41.8-11.8 5.1 1.1 5 3.7 2.6 5.4-10.6-3.5-37.5-6.9-43.4 1.2z"/>
    <linearGradient id="SVGID_11_" gradientUnits="userSpaceOnUse" x1="223.882" y1="122.373" x2="223.882" y2="122.373">
        <stop offset="0" stop-color="#0066B3"/>
        <stop offset="1" stop-color="#44C8F5"/>
    </linearGradient>
    <path class="st11" d="M223.9 122.4z"/>
    <linearGradient id="SVGID_12_" gradientUnits="userSpaceOnUse" x1="202.138" y1="122.648" x2="220.9" y2="71.168">
        <stop offset="0" stop-color="#0066B3"/>
        <stop offset=".405" stop-color="#00A3E4"/>
        <stop offset="1" stop-color="#44C8F5"/>
    </linearGradient>
    <path class="st12"
          d="M225.1 94c.8 7.5.4 16.9-3.6 22.7.8 2.1 1.6 4.1 2.4 5.7 4.2-4.5 6.9-14.9 6.3-24.3-1.3-11.2-2.7-29.7-27-12.2-7.8 5.4-15 13.4-17.7 19.4 2.1 0 4.2-.3 6.3-.8 4.3-6.3 10.8-12.5 16.7-16.3 9.1-6.3 15.1-8.7 16.6 5.8z"/>
    <linearGradient id="SVGID_13_" gradientUnits="userSpaceOnUse" x1="168.099" y1="131.792" x2="260.12" y2="131.792"
                    gradientTransform="rotate(-3.624 -283.245 74.858)">
        <stop offset="0" stop-color="#008BD0"/>
        <stop offset=".008" stop-color="#008CD0"/>
        <stop offset=".176" stop-color="#00A5DF"/>
        <stop offset=".323" stop-color="#4ABAEA"/>
        <stop offset=".444" stop-color="#65C8F2"/>
        <stop offset=".523" stop-color="#6DCFF6"/>
        <stop offset="1" stop-color="#44C8F5"/>
    </linearGradient>
    <path class="st13"
          d="M252.8 110.4c-1.7-7-23.6-18.4-37.6-22.3-11.8-3.3-29.2-4.4-41 .4-6.6 2.5-4.8 8.9 2.2 6 13.2-5.5 25-5.6 36.7-1.8 13.9 4.4 22.1 7.3 33.5 19.8 3.5 4 7.5 2.1 6.2-2.1z"/>
    <linearGradient id="SVGID_14_" gradientUnits="userSpaceOnUse" x1="233.33" y1="83.534" x2="253.357" y2="111.33">
        <stop offset="0" stop-color="#0066B3"/>
        <stop offset=".039" stop-color="#0073BB"/>
        <stop offset=".121" stop-color="#008DCE"/>
        <stop offset=".2" stop-color="#1FA4DE"/>
        <stop offset=".273" stop-color="#36B6E9"/>
        <stop offset=".339" stop-color="#42C2F1"/>
        <stop offset=".392" stop-color="#44C8F5"/>
        <stop offset=".468" stop-color="#3FBFEF"/>
        <stop offset=".594" stop-color="#2AACE3"/>
        <stop offset=".756" stop-color="#0090D0"/>
        <stop offset=".945" stop-color="#006FB9"/>
        <stop offset="1" stop-color="#0066B3"/>
    </linearGradient>
    <path class="st14"
          d="M236 94.6c.3.3 1.4 1.7 2.9 3.6 6.8 3.9 12.3 8 13.7 11.4-.8-2.4-2.6-5.3-5.1-8.8-1-1.4-8.1-9.8-9.6-11.6-2.1-2.6-4.6-6.1-1.5-9.1-1.7.7-3.1 1.7-4 3-1 1.4-1.7 3-1 5.2 1 2 2.6 3.9 4.6 6.3z"/>
    <linearGradient id="SVGID_15_" gradientUnits="userSpaceOnUse" x1="230.135" y1="146.896" x2="260.594" y2="165.198"
                    gradientTransform="matrix(1.043 -.1009 .1095 1.0131 -10.073 -38.975)">
        <stop offset=".387" stop-color="#0066B3"/>
        <stop offset="1" stop-color="#001A45"/>
    </linearGradient>
    <path class="st15"
          d="M250.8 80.3c.3.1.6.3 1 .5.9.5 1.8 1.1 2.7 1.8 2.7 1.9 5.2 4 7.7 6.1 4.3 3.7 9.6 8.8 13.5 12.8 4.7 4.7.7 9.6-4.1 4.8-6.4-6.9-9-10.1-11.6-12.9-2.5-2.7-5.1-5.4-7.7-8.1-.8-.9-1.7-1.7-2.4-2.6-.2-.3-.5-.6-.7-.9-.3-.5-.4-1.2.2-1.5.3-.3.9-.2 1.4 0z"/>
    <linearGradient id="SVGID_16_" gradientUnits="userSpaceOnUse" x1="235.941" y1="79.441" x2="257.274" y2="92.215">
        <stop offset="0" stop-color="#0066B3"/>
        <stop offset=".083" stop-color="#0072BB"/>
        <stop offset=".256" stop-color="#0094D3"/>
        <stop offset=".446" stop-color="#44C8F5"/>
        <stop offset=".63" stop-color="#3FC7F4"/>
        <stop offset=".729" stop-color="#29C5F4"/>
        <stop offset=".808" stop-color="#00C1F3"/>
        <stop offset=".877" stop-color="#00BBF2"/>
        <stop offset=".939" stop-color="#00B5F1"/>
        <stop offset=".995" stop-color="#00AEEF"/>
        <stop offset="1" stop-color="#00AEEF"/>
    </linearGradient>
    <path class="st16"
          d="M253.2 86.3c-4.2.2-11-1.5-11.2-7.7-1.4.2-2.8.5-4 .9.5 10.9 13.4 12 19.2 10.9-1.4-1.4-2.7-2.8-4-4.1z"/>
    <linearGradient id="SVGID_17_" gradientUnits="userSpaceOnUse" x1="261.74" y1="88.62" x2="271.533" y2="79.139">
        <stop offset=".006" stop-color="#00B9F2"/>
        <stop offset=".059" stop-color="#00BEF3"/>
        <stop offset=".132" stop-color="#18C3F4"/>
        <stop offset=".209" stop-color="#3CC7F4"/>
        <stop offset=".295" stop-color="#44C8F5"/>
        <stop offset=".461" stop-color="#29ABE2"/>
        <stop offset=".827" stop-color="#0072BB"/>
        <stop offset=".916" stop-color="#0066B3"/>
    </linearGradient>
    <path class="st17"
          d="M262.1 88.7l.3.3c4.5-1.6 9-4.2 13.3-7.2-1.8-.6-4.1-1.2-6.6-1.7-3.7 2.5-7.4 4.3-11 5.3 1.4 1 2.7 2.1 4 3.3z"/>
    <linearGradient id="SVGID_18_" gradientUnits="userSpaceOnUse" x1="267.936" y1="37.306" x2="230.568" y2="37.306">
        <stop offset="0" stop-color="#0066B3"/>
        <stop offset=".288" stop-color="#0066B3"/>
        <stop offset=".369" stop-color="#0079C0"/>
        <stop offset=".493" stop-color="#0097D5"/>
        <stop offset=".602" stop-color="#2EAFE5"/>
        <stop offset=".691" stop-color="#40C0EF"/>
        <stop offset=".747" stop-color="#44C8F5"/>
        <stop offset=".791" stop-color="#3BC4F3"/>
        <stop offset=".846" stop-color="#0ABCEF"/>
        <stop offset=".904" stop-color="#00B2EA"/>
        <stop offset=".963" stop-color="#00A5E5"/>
    </linearGradient>
    <path class="st18"
          d="M267.9 9.6l-1.6.4c-1.3.4-2.6.9-3.9 1.5.1 2-.4 5.2-1.9 9.6-4.3 12.6-13.6 31.7-28.9 38.1-.4 1.9-.8 3.8-1.1 5.8 16.1-5.9 24-19.4 29.4-28.9 4.9-8.4 8.5-20 8-26.5z"/>
    <linearGradient id="SVGID_19_" gradientUnits="userSpaceOnUse" x1="238.578" y1="61.48" x2="279.537" y2="61.48">
        <stop offset="0" stop-color="#0066B3"/>
        <stop offset=".052" stop-color="#007BC1"/>
        <stop offset=".114" stop-color="#0093D2"/>
        <stop offset=".174" stop-color="#25A8E0"/>
        <stop offset=".233" stop-color="#38B8EB"/>
        <stop offset=".288" stop-color="#42C2F1"/>
        <stop offset=".337" stop-color="#44C8F5"/>
        <stop offset=".602" stop-color="#60CCF6"/>
        <stop offset=".843" stop-color="#6DCFF6"/>
        <stop offset=".988" stop-color="#6DCFF6"/>
    </linearGradient>
    <path class="st19"
          d="M279.5 51c-.3-1.4-1.9-2.6-5.3-2.2-5.1.4-9.9 1.5-14.4 3.3-4.5 1.8-8.7 4.3-12.5 7.7-2.4 2.1-4.6 4.9-6.2 8-1.1 2.1-2 4.3-2.5 6.5 1.3-.3 2.6-.5 4-.7.3-.9.6-1.8 1.1-2.7 1-2 2.6-3.9 4.6-5.7 3.7-3.1 7.4-5.4 11.5-7.1 4.1-1.7 8.7-2.7 14.2-3.4 4.8-.6 5.8-2.3 5.5-3.7z"/>
</svg>